# AST/ASF file generated using VICON BodyLanguage
# -----------------------------------------------
:version 1.10
:name VICON
:units
  mass 1.0
  length 0.45
  angle deg
:documentation
   .ast/.asf automatically generated from VICON data using
   VICON BodyBuilder and BodyLanguage model FoxedUp or BRILLIANT.MOD
:root
   order TX TY TZ RX RY RZ
   axis XYZ
   position 0 0 0  
   orientation 0 0 0 
:bonedata
  begin
     id 1 
     name lhipjoint
     direction 0.710188 -0.616876 0.339259 
     length 2.5669 
     axis 0 0 0  XYZ
  end
  begin
     id 2 
     name lfemur
     direction 0.34202 -0.939693 0  
     length 7.12796  
     axis 0 0 20  XYZ
    dof rx ry rz
    limits (-160.0 20.0)
           (-70.0 70.0)
           (-60.0 70.0)
  end
  begin
     id 3 
     name ltibia
     direction 0.34202 -0.939693 0   
     length 7.58108   
     axis 0 0 20   XYZ
    dof rx
    limits (-10.0 170.0)
  end
  begin
     id 4 
     name lfoot
     direction 0.0669471 -0.183936 0.980656   
     length 2.17365   
     axis -90 7.62852e-016 20   XYZ
    dof rx rz
    limits (-45.0 90.0)
           (-70.0 20.0)
  end
  begin
     id 5 
     name ltoes
     direction 1.53508e-011 -4.21705e-011 1   
     length 1.09427   
     axis -90 7.62852e-016 20   XYZ
    dof rx
    limits (-90.0 20.0)
  end
  begin
     id 6 
     name rhipjoint
     direction -0.700191 -0.625589 0.34405   
     length 2.53115  
     axis 0 0 0  XYZ 
  end
  begin
     id 7 
     name rfemur
     direction -0.34202 -0.939693 0   
     length 7.33006   
     axis 0 0 -20   XYZ
    dof rx ry rz
    limits (-160.0 20.0)
           (-70.0 70.0)
           (-70.0 60.0)
  end
  begin
     id 8 
     name rtibia
     direction -0.34202 -0.939693 0   
     length 7.64926   
     axis 0 0 -20   XYZ
    dof rx
    limits (-10.0 170.0)
 end
 begin
     id 9 
     name rfoot
     direction -0.0688927 -0.189281 0.979503   
     length 2.20493  
     axis -90 -7.62852e-016 -20   XYZ
    dof rx rz
    limits (-45.0 90.0)
           (-20.0 70.0)
  end
  begin
     id 10 
     name rtoes
     direction -1.53567e-011 -4.21933e-011 1   
     length 1.10919   
     axis -90 -7.62852e-016 -20   XYZ
    dof rx
    limits (-90.0 20.0)
  end
  begin
     id 11 
     name lowerback
     direction -0.0167868 0.989873 -0.140959   
     length 2.14596   
     axis 0 0 0   XYZ
    dof rx ry rz
    limits (-20.0 45.0)
           (-30.0 30.0)
           (-30.0 30.0)
  end
  begin
     id 12 
     name upperback
     direction 0.0129109 0.998033 0.0613525   
     length 2.10457   
     axis 0 0 0   XYZ
    dof rx ry rz
    limits (-20.0 45.0)
           (-30.0 30.0)
           (-30.0 30.0)
  end
  begin
     id 13 
     name thorax
     direction 0.0177047 0.991119 0.131797   
     length 2.17652   
     axis 0 0 0   XYZ
    dof rx ry rz
    limits (-20.0 45.0)
           (-30.0 30.0)
           (-30.0 30.0)
  end
  begin
     id 14 
     name lowerneck
     direction -0.0336893 0.997548 0.0613464   
     length 1.8912   
     axis 0 0 0   XYZ
    dof rx ry rz
    limits (-20.0 45.0)
           (-30.0 30.0)
           (-30.0 30.0)
  end
  begin
     id 15 
     name upperneck
     direction 0.0435909 0.997179 -0.0611028   
     length 1.8829   
     axis 0 0 0   XYZ
    dof rx ry rz
    limits (-20.0 45.0)
           (-30.0 30.0)
           (-30.0 30.0)
  end
  begin
     id 16
     name head
     direction 0.0175076 0.999444 -0.0283782  
     length 1.93197  
     axis 0 0 0   XYZ
    dof rx ry rz
    limits (-20.0 45.0)
           (-30.0 30.0)
           (-30.0 30.0)
  end
  begin
     id 17 
     name lclavicle
     direction 0.919164 0.389875 0.0559876  
     length 3.60004  
     axis 0 0 0   XYZ
    dof ry rz
    limits (-20.0 10.0)
           (0.0 20.0)
  end
  begin
     id 18 
     name lhumerus
     direction 1 -4.48958e-011 6.89191e-027   
     length 5.43301   
     axis 180 -30 -90   XYZ
    dof rx ry rz
    limits (-60.0 90.0)
           (-90.0 90.0)
           (-90.0 90.0)
  end
  begin
     id 19
     name lradius
     direction 1 -4.4897e-011 3.24727e-027   
     length 3.15936   
     axis 180 -30 -90   XYZ
    dof rx
    limits (-10.0 170.0)
  end
  begin
     id 20
     name lwrist
     direction 1 -4.4897e-011 9.00228e-027   
     length 1.57968   
     axis -6.29373e-015 90 90   XYZ
    dof ry
    limits (-180.0 0.0)
 end
  begin
     id 21 
     name lhand
     direction 1 -4.48968e-011 1.80042e-026   
     length 0.712827   
     axis -1.14882e-014 90 90   XYZ
    dof rx rz
    limits (-90.0 90.0)
           (-45.0 45.0)
  end
  begin
     id 22 
     name lfingers
     direction 1 -4.49019e-011 3.60267e-026   
     length 0.574699   
     axis -2.29769e-014 90 90   XYZ
    dof rx
    limits (0.0 90.0)
  end
  begin
     id 23
     name lthumb
     direction 0.707107 -6.3498e-011 0.707107   
     length 0.825157   
     axis -90 45 5.37419e-014   XYZ
    dof rx rz
    limits (-45.0 45.0)
           (-45.0 45.0)
  end
  begin
     id 24 
     name rclavicle
     direction -0.890334 0.455305 -0.00132111   
     length 3.51494  
     axis 0 0 0   XYZ 
    dof ry rz
    limits (-10.0 20.0)
           (-20.0 0.0)
  end
  begin
     id 25 
     name rhumerus
     direction -1 -4.48967e-011 5.07175e-028  
     length 5.34194   
     axis 180 30 90   XYZ
    dof rx ry rz
    limits (-90.0 60.0)
           (-90.0 90.0)
           (-90.0 90.0)
  end
  begin
     id 26 
     name rradius
     direction -1 -4.48955e-011 3.30467e-027   
     length 3.19351   
     axis 180 30 90   XYZ
    dof rx
    limits (-10.0 170.0)
  end
  begin
     id 27 
     name rwrist
     direction -1 -4.48968e-011 9.00208e-027   
     length 1.59676   
     axis -6.29373e-015 -90 -90   XYZ
    dof ry
    limits (-180.0 0.0)
  end
  begin
     id 28
     name rhand
     direction -1 -4.49e-011 1.80099e-026   
     length 0.743862   
     axis -1.14882e-014 -90 -90   XYZ
    dof rx rz
    limits (-90.0 90.0)
           (-45.0 45.0)
  end
  begin
     id 29
     name rfingers
     direction -1 -4.49009e-011 3.6023e-026   
     length 0.599721   
     axis -2.29769e-014 -90 -90   XYZ
    dof rx
    limits (0.0 90.0)
  end
  begin
     id 30
     name rthumb
     direction -0.707107 -6.35025e-011 0.707107   
     length 0.861083   
     axis -90 -45 -5.37419e-014   XYZ
    dof rx rz
    limits (-45.0 45.0)
           (-45.0 45.0)
  end
:hierarchy
  begin
    root lhipjoint rhipjoint lowerback
    lhipjoint lfemur
    lfemur ltibia
    ltibia lfoot
    lfoot ltoes
    rhipjoint rfemur
    rfemur rtibia
    rtibia rfoot
    rfoot rtoes
    lowerback upperback
    upperback thorax
    thorax lowerneck lclavicle rclavicle
    lowerneck upperneck
    upperneck head
    lclavicle lhumerus
    lhumerus lradius
    lradius lwrist
    lwrist lhand lthumb
    lhand lfingers
    rclavicle rhumerus
    rhumerus rradius
    rradius rwrist
    rwrist rhand rthumb
    rhand rfingers
  end

#!OML:ASF H:\Martial Arts Walks\Project 1\Capture day 1\Session 1\male.ASF
:FULLY-SPECIFIED
:DEGREES
438
root -2.02958 14.6655 -17.5874 -3.17821 28.4436 -0.878933
lowerback 18.9863 -0.427674 -3.63427
upperback -2.22837 -1.0206 3.08461
thorax -13.122 -0.0458503 5.86408
lowerneck -1.31593 -8.83964 -10.6968
upperneck 4.13595 -11.8306 7.0223
head 2.49316 -5.92258 3.40118
rclavicle -8.42102e-014 9.54166e-015
rhumerus 21.8237 37.4199 -59.4727
rradius 117.815
rwrist 8.56558
rhand -34.0532 -28.0921
rfingers 7.12502
rthumb -7.23088 -57.9486
lclavicle -8.42102e-014 9.54166e-015
lhumerus -28.1488 -68.1018 120.889
lradius 74.9057
lwrist 0.520175
lhand 8.40691 24.6246
lfingers 7.12502
lthumb 33.6138 51.4933
rfemur -57.9126 -18.9648 16.7078
rtibia 56.9874
rfoot 8.18215 6.07128
rtoes -0.835772
lfemur -32.8826 21.9672 -26.2292
ltibia 73.5084
lfoot -30.2633 18.5601
ltoes -1.60738
439
root -2.0619 14.6738 -17.3539 -3.59862 31.2121 -1.51099
lowerback 18.7108 -0.850092 -3.72648
upperback -2.25444 -1.55434 3.42742
thorax -12.9108 -0.277334 6.45197
lowerneck -1.54602 -9.17177 -11.1207
upperneck 4.15504 -12.2495 7.18732
head 2.60905 -6.12904 3.47472
rclavicle -4.73356e-015 -1.82882e-014
rhumerus 15.5956 32.9217 -62.8558
rradius 116.39
rwrist 16.4231
rhand -39.6864 -27.7237
rfingers 7.12502
rthumb -12.6655 -57.3197
lclavicle -4.73356e-015 -1.82882e-014
lhumerus -33.8417 -66.0771 123.868
lradius 80.6394
lwrist 14.0258
lhand 9.59985 23.7344
lfingers 7.12502
lthumb 34.7467 50.3493
rfemur -55.967 -18.9572 14.5938
rtibia 53.053
rfoot 11.8289 6.54897
rtoes 1.07947
lfemur -32.3583 22.6026 -25.566
ltibia 73.5814
lfoot -30.9213 19.0989
ltoes -0.510337
440
root -2.09148 14.6771 -17.1216 -4.05456 33.9327 -2.19103
lowerback 18.4314 -1.29065 -3.82601
upperback -2.25788 -2.11435 3.77271
thorax -12.6575 -0.525111 7.04658
lowerneck -1.72765 -9.48203 -11.5399
upperneck 4.04164 -12.6381 7.36442
head 2.67736 -6.31975 3.55641
rclavicle -6.55803e-014 4.21423e-014
rhumerus 10.5173 27.5795 -65.455
rradius 114.157
rwrist 22.9789
rhand -44.1826 -30.5305
rfingers 7.12502
rthumb -16.997 -59.8068
lclavicle -6.55803e-014 4.21423e-014
lhumerus -38.4167 -63.3572 125.432
lradius 86.3512
lwrist 29.7511
lhand 12.4423 25.1551
lfingers 7.12502
lthumb 37.439 51.1048
rfemur -53.8526 -18.8008 12.4033
rtibia 49.3779
rfoot 15.2757 6.63974
rtoes 2.93574
lfemur -31.8921 23.0224 -24.7495
ltibia 73.7596
lfoot -31.6265 19.3824
ltoes 0.232867
441
root -2.11872 14.6736 -16.8916 -4.55842 36.5788 -2.92759
lowerback 18.1411 -1.74908 -3.93948
upperback -2.2454 -2.70198 4.11845
thorax -12.3647 -0.79 7.64826
lowerneck -1.80326 -9.76118 -11.9248
upperneck 3.81041 -12.9917 7.53673
head 2.68942 -6.4935 3.64076
rclavicle -5.85297e-014 4.77083e-015
rhumerus 6.70475 21.9066 -67.2281
rradius 111.149
rwrist 27.5364
rhand -46.8612 -35.1558
rfingers 7.12502
rthumb -19.5738 -64.1904
lclavicle -5.85297e-014 4.77083e-015
lhumerus -41.7921 -59.9722 125.478
lradius 91.6555
lwrist 46.049
lhand 15.9879 29.3261
lfingers 7.12502
lthumb 40.7808 54.3118
rfemur -51.6614 -18.5238 10.2441
rtibia 46.0896
rfoot 18.4021 6.31257
rtoes 4.68811
lfemur -31.4989 23.1827 -23.7634
ltibia 74.0624
lfoot -32.3128 19.4003
ltoes 0.543144
442
root -2.14409 14.6618 -16.6648 -5.12193 39.1146 -3.7222
lowerback 17.8374 -2.21684 -4.07905
upperback -2.22393 -3.30959 4.45649
thorax -12.0391 -1.06822 8.25141
lowerneck -1.73963 -10.0081 -12.2507
upperneck 3.5193 -13.3166 7.69953
head 2.65554 -6.65457 3.72374
rclavicle -3.05694e-014 -8.74653e-015
rhumerus 4.09711 16.4422 -68.3238
rradius 107.468
rwrist 29.7
rhand -47.8124 -38.6619
rfingers 7.12502
rthumb -20.4881 -67.6009
lclavicle -3.05694e-014 -8.74653e-015
lhumerus -44.3137 -56.208 124.398
lradius 96.1258
lwrist 60.8508
lhand 18.507 35.0201
lfingers 7.12502
lthumb 43.1418 59.2157
rfemur -49.5042 -18.1958 8.24496
rtibia 43.3158
rfoot 21.0921 5.59987
rtoes 6.26211
lfemur -31.1912 23.0859 -22.6184
ltibia 74.4954
lfoot -32.9326 19.1925
ltoes 0.396951
443
root -2.1679 14.6405 -16.4424 -5.7534 41.4947 -4.56577
lowerback 17.5305 -2.67543 -4.25298
upperback -2.19963 -3.91635 4.77078
thorax -11.6971 -1.34964 8.83725
lowerneck -1.53522 -10.2321 -12.5077
upperneck 3.25922 -13.6317 7.86587
head 2.60455 -6.81302 3.80502
rclavicle -3.72628e-014 4.05521e-014
rhumerus 2.54448 11.5694 -68.9587
rradius 103.257
rwrist 29.6401
rhand -47.7392 -39.3039
rfingers 7.12502
rthumb -20.4178 -68.2504
lclavicle -3.72628e-014 4.05521e-014
lhumerus -46.4584 -52.5105 122.824
lradius 99.5609
lwrist 72.5904
lhand 19.3407 40.3012
lfingers 7.12502
lthumb 43.9204 64.2137
rfemur -47.4976 -17.9252 6.54012
rtibia 41.1686
rfoot 23.2203 4.62149
rtoes 7.56042
lfemur -30.9704 22.7797 -21.351
ltibia 75.0511
lfoot -33.4714 18.8363
ltoes -0.169808
444
root -2.19015 14.6091 -16.2257 -6.45157 43.666 -5.43374
lowerback 17.2425 -3.09626 -4.45763
upperback -2.17548 -4.48597 5.03862
thorax -11.3637 -1.61674 9.37116
lowerneck -1.21943 -10.4529 -12.7019
upperneck 3.12557 -13.9653 8.05823
head 2.57451 -6.98327 3.88628
rclavicle 8.20639e-014 -3.49861e-014
rhumerus 1.85853 7.45469 -69.3133
rradius 98.7334
rwrist 27.8876
rhand -47.208 -37.4391
rfingers 7.12502
rthumb -19.9073 -66.4395
lclavicle 8.20639e-014 -3.49861e-014
lhumerus -48.4972 -49.2865 121.26
lradius 102.016
lwrist 80.6551
lhand 19.0159 43.9836
lfingers 7.12502
lthumb 43.6172 68.0078
rfemur -45.747 -17.8355 5.24125
rtibia 39.7236
rfoot 24.6553 3.57901
rtoes 8.4587
lfemur -30.8222 22.3462 -20.0182
ltibia 75.711
lfoot -33.9441 18.43
ltoes -1.06072
445
root -2.21047 14.5676 -16.0167 -7.19903 45.573 -6.28522
lowerback 17.0004 -3.44427 -4.6749
upperback -2.15001 -4.9704 5.23632
thorax -11.0677 -1.84621 9.80875
lowerneck -0.838417 -10.6951 -12.8491
upperneck 3.17772 -14.3479 8.29363
head 2.59615 -7.18014 3.96834
rclavicle -1.68346e-014 -1.98785e-014
rhumerus 1.82332 4.09154 -69.4861
rradius 94.1586
rwrist 25.181
rhand -46.5228 -34.5426
rfingers 7.12502
rthumb -19.2484 -63.61
lclavicle -1.68346e-014 -1.98785e-014
lhumerus -50.4775 -46.8011 120
lradius 103.642
lwrist 85.11
lhand 18.2532 45.8195
lfingers 7.12502
lthumb 42.9045 70.0991
rfemur -44.3293 -18.0223 4.41018
rtibia 39.0016
rfoot 25.2902 2.69813
rtoes 8.8602
lfemur -30.7172 21.8842 -18.688
ltibia 76.4502
lfoot -34.3765 18.0777
ltoes -2.1447
446
root -2.22829 14.5169 -15.8173 -7.95863 47.1652 -7.06357
lowerback 16.8282 -3.68254 -4.87804
upperback -2.11914 -5.31672 5.34383
thorax -10.8369 -2.01205 10.1053
lowerneck -0.431169 -10.9783 -12.9685
upperneck 3.40878 -14.8015 8.58064
head 2.6783 -7.41355 4.0524
rclavicle 8.0701e-014 -7.95139e-016
rhumerus 2.19556 1.3818 -69.4985
rradius 89.8073
rwrist 22.261
rhand -45.8373 -31.9955
rfingers 7.12502
rthumb -18.5892 -61.1273
lclavicle 8.0701e-014 -7.95139e-016
lhumerus -52.354 -45.1763 119.199
lradius 104.576
lwrist 86.3583
lhand 17.5667 45.9983
lfingers 7.12502
lthumb 42.2619 70.4999
rfemur -43.2824 -18.5148 4.04211
rtibia 38.9593
rfoot 25.0765 2.14299
rtoes 8.73731
lfemur -30.6152 21.4896 -17.4297
ltibia 77.2399
lfoot -34.7909 17.8702
ltoes -3.27792
447
root -2.24297 14.4586 -15.6291 -8.67506 48.4065 -7.70727
lowerback 16.7364 -3.78228 -5.03726
upperback -2.07891 -5.48098 5.3522
thorax -10.6898 -2.09251 10.2284
lowerneck -0.0169243 -11.3101 -13.0748
upperneck 3.73896 -15.3309 8.91191
head 2.80174 -7.68453 4.13863
rclavicle -6.55803e-014 -5.56597e-015
rhumerus 2.7347 -0.786724 -69.3234
rradius 85.9344
rwrist 19.6992
rhand -45.2448 -30.4848
rfingers 7.12502
rthumb -18.0192 -59.6701
lclavicle -6.55803e-014 -5.56597e-015
lhumerus -54.0624 -44.3986 118.911
lradius 104.929
lwrist 85.0269
lhand 17.282 44.844
lfingers 7.12502
lthumb 41.9951 69.4357
rfemur -42.6087 -19.2675 4.07591
rtibia 39.4959
rfoot 24.0522 1.9512
rtoes 8.16914
lfemur -30.4809 21.2398 -16.3041
ltibia 78.0504
lfoot -35.199 17.8704
ltoes -4.33281
448
root -2.25409 14.3954 -15.4535 -9.28573 49.2822 -8.16375
lowerback 16.7199 -3.72952 -5.13383
upperback -2.02865 -5.43972 5.26743
thorax -10.6314 -2.07579 10.171
lowerneck 0.404188 -11.6821 -13.1768
upperneck 4.04707 -15.9185 9.26963
head 2.92817 -7.98361 4.22745
rclavicle -1.33484e-013 4.37326e-014
rhumerus 3.23796 -2.50027 -68.9237
rradius 82.7401
rwrist 17.8135
rhand -44.7833 -30.0306
rfingers 7.12502
rthumb -17.5752 -59.2562
lclavicle -1.33484e-013 4.37326e-014
lhumerus -55.5413 -44.3308 119.086
lradius 104.816
lwrist 81.9765
lhand 17.5421 42.6997
lfingers 7.12502
lthumb 42.2389 67.2092
rfemur -42.284 -20.1762 4.41597
rtibia 40.4732
rfoot 22.3575 2.03214
rtoes 7.33968
lfemur -30.291 21.186 -15.3539
ltibia 78.8519
lfoot -35.6035 18.1045
ltoes -5.21438
449
root -2.26156 14.3305 -15.291 -9.73533 49.8042 -8.40519
lowerback 16.7595 -3.53063 -5.16074
upperback -1.97354 -5.1978 5.10729
thorax -10.654 -1.96414 9.94907
lowerneck 0.84454 -12.073 -13.2739
upperneck 4.21159 -16.5288 9.63129
head 3.01372 -8.29366 4.31935
rclavicle 1.81546e-014 -4.05521e-014
rhumerus 3.56934 -3.81099 -68.2838
rradius 80.3313
rwrist 16.7049
rhand -44.4632 -30.3033
rfingers 7.12502
rthumb -17.2671 -59.5562
lclavicle 1.81546e-014 -4.05521e-014
lhumerus -56.7344 -44.7423 119.586
lradius 104.388
lwrist 78.2362
lhand 18.2866 39.9273
lfingers 7.12502
lthumb 42.9358 64.1959
rfemur -42.2696 -21.117 4.95834
rtibia 41.741
rfoot 20.2152 2.22697
rtoes 6.46818
lfemur -30.0448 21.3471 -14.5994
ltibia 79.6165
lfoot -36.0023 18.5615
ltoes -5.86825
450
root -2.26562 14.2671 -15.1413 -9.98874 50.0095 -8.43832
lowerback 16.8253 -3.2121 -5.12417
upperback -1.92306 -4.78865 4.89823
thorax -10.738 -1.77396 9.5996
lowerneck 1.311 -12.4534 -13.3634
upperneck 4.15553 -17.1161 9.97885
head 3.02717 -8.59297 4.41593
rclavicle 7.82839e-014 -6.52014e-014
rhumerus 3.67666 -4.75203 -67.4265
rradius 78.7057
rwrist 16.308
rhand -44.2571 -30.8522
rfingers 7.12502
rthumb -17.0687 -60.1224
lclavicle 7.82839e-014 -6.52014e-014
lhumerus -57.5875 -45.3576 120.22
lradius 103.821
lwrist 74.7692
lhand 19.2867 36.9431
lfingers 7.12502
lthumb 43.87 60.8743
rfemur -42.525 -21.9822 5.6126
rtibia 43.1605
rfoot 17.8907 2.41028
rtoes 5.70243
lfemur -29.7659 21.7106 -14.0385
ltibia 80.3202
lfoot -36.3933 19.1949
ltoes -6.27352
451
root -2.26682 14.2084 -15.0035 -10.0374 49.955 -8.30041
lowerback 16.8862 -2.81552 -5.04085
upperback -1.88928 -4.26788 4.6677
thorax -10.8602 -1.53199 9.17171
lowerneck 1.79798 -12.7927 -13.4439
upperneck 3.86816 -17.6349 10.3032
head 2.95962 -8.8598 4.51935
rclavicle 9.85382e-014 2.14687e-014
rhumerus 3.57774 -5.34544 -66.416
rradius 77.7518
rwrist 16.5168
rhand -44.1712 -31.4429
rfingers 7.12502
rthumb -16.986 -60.7202
lclavicle 9.85382e-014 2.14687e-014
lhumerus -58.0638 -45.9122 120.805
lradius 103.282
lwrist 72.2224
lhand 20.2592 34.2452
lfingers 7.12502
lthumb 44.7765 57.8323
rfemur -43.0109 -22.7024 6.30887
rtibia 44.6204
rfoot 15.6338 2.53589
rtoes 5.09539
lfemur -29.4928 22.2384 -13.6501
ltibia 80.9455
lfoot -36.7728 19.9378
ltoes -6.44418
452
root -2.26584 14.1569 -14.8763 -9.89875 49.7093 -8.04713
lowerback 16.917 -2.38851 -4.93338
upperback -1.88214 -3.70081 4.43942
thorax -10.9983 -1.26902 8.71776
lowerneck 2.28423 -13.0648 -13.5173
upperneck 3.40148 -18.0492 10.6031
head 2.82539 -9.07613 4.63057
rclavicle 4.37295e-014 -2.54444e-014
rhumerus 3.33734 -5.6202 -65.3454
rradius 77.2925
rwrist 17.2012
rhand -44.1947 -32.0167
rfingers 7.12502
rthumb -17.0086 -61.2921
lclavicle 4.37295e-014 -2.54444e-014
lhumerus -58.1551 -46.1966 121.197
lradius 102.89
lwrist 70.8488
lhand 20.9559 32.3352
lfingers 7.12502
lthumb 45.4245 55.6656
rfemur -43.6889 -23.2553 6.99937
rtibia 46.0467
rfoot 13.6233 2.63783
rtoes 4.59001
lfemur -29.2649 22.8752 -13.3998
ltibia 81.4828
lfoot -37.1351 20.7165
ltoes -6.42515
